<?xml version="1.0" standalone="no"?>
<!DOCTYPE svg PUBLIC "-//W3C//DTD SVG 20010904//EN"
 "http://www.w3.org/TR/2001/REC-SVG-20010904/DTD/svg10.dtd">
<svg version="1.0" xmlns="http://www.w3.org/2000/svg"
 width="1001.000000pt" height="907.000000pt" viewBox="0 0 1001.000000 907.000000"
 preserveAspectRatio="xMidYMid meet">
<metadata>
Created by potrace 1.16, written by Peter Selinger 2001-2019
</metadata>
<g transform="translate(0.000000,907.000000) scale(0.100000,-0.100000)"
fill="#5c2d91" stroke="none">
<path d="M9418 9043 c-8 -10 -50 -81 -93 -158 -568 -1017 -1184 -1528 -2219
-1840 -245 -74 -256 -67 -155 100 228 380 385 834 444 1288 17 135 12 157 -36
157 -25 0 -49 -19 -144 -114 -509 -509 -1176 -844 -1870 -940 -60 -8 -128 -18
-150 -21 -22 -3 -438 -10 -925 -14 -920 -9 -928 -9 -1200 -56 -314 -53 -710
-185 -1004 -332 -966 -484 -1686 -1389 -1950 -2448 -32 -129 -60 -278 -83
-435 -22 -158 -26 -763 -5 -930 109 -883 448 -1614 1022 -2204 588 -603 1352
-969 2235 -1071 197 -22 589 -30 835 -16 1288 73 2297 453 3189 1201 168 141
471 437 471 461 0 32 -27 22 -158 -60 -550 -340 -1167 -602 -1807 -766 -936
-239 -1998 -278 -2725 -100 -472 116 -885 318 -1261 616 -133 106 -372 344
-479 479 -485 611 -724 1388 -660 2145 118 1372 1105 2498 2442 2784 637 136
1300 65 1902 -205 220 -99 451 -240 648 -395 132 -104 413 -386 508 -509 419
-543 645 -1176 676 -1891 9 -226 -15 -405 -81 -606 -68 -203 -167 -366 -309
-509 -234 -235 -513 -339 -839 -313 -269 22 -491 113 -665 274 -66 61 -154
167 -164 197 -3 7 -40 -24 -87 -74 -297 -313 -715 -484 -1141 -465 -945 42
-1629 952 -1404 1867 107 435 408 808 809 1005 138 67 206 92 350 127 86 21
115 22 670 25 635 5 651 4 772 -52 168 -77 290 -215 349 -395 16 -50 19 -114
24 -720 6 -641 7 -668 28 -743 68 -246 224 -387 462 -416 296 -37 506 127 597
466 24 90 26 114 27 298 0 405 -82 748 -269 1113 -322 634 -915 1111 -1592
1281 -535 135 -1080 95 -1580 -115 -780 -326 -1339 -1035 -1483 -1880 -103
-600 20 -1175 360 -1687 417 -628 1102 -1051 1880 -1163 152 -21 789 -31 1027
-15 778 52 1495 245 2183 587 608 303 1078 641 1560 1124 478 477 814 943
1104 1530 299 605 471 1209 538 1890 21 213 18 925 -5 1110 -65 533 -184 953
-388 1370 -39 80 -78 153 -86 163 -9 9 -30 17 -48 17 -18 0 -38 -8 -47 -17z"/>
<path d="M3412 4675 c-263 -68 -483 -252 -597 -499 -125 -269 -107 -599 46
-860 53 -91 220 -257 309 -309 246 -142 549 -167 808 -67 124 48 210 105 312
209 99 101 157 186 203 302 60 150 60 152 64 697 4 448 3 506 -12 528 l-15 24
-513 0 c-507 -1 -513 -1 -605 -25z"/>
</g>
</svg>
